<svg width="40" height="40" viewBox="0 0 40 40" fill="none" xmlns="http://www.w3.org/2000/svg">
<rect width="40" height="40" rx="12" fill="#2A478D" fill-opacity="0.1"/>
<path d="M11.7183 20.2898C11.6489 20.1027 11.6489 19.8969 11.7183 19.7098C12.3948 18.0697 13.5429 16.6673 15.0173 15.6806C16.4917 14.6938 18.2259 14.167 20 14.167C21.7741 14.167 23.5083 14.6938 24.9827 15.6806C26.4571 16.6673 27.6053 18.0697 28.2817 19.7098C28.3511 19.8969 28.3511 20.1027 28.2817 20.2898C27.6053 21.9299 26.4571 23.3323 24.9827 24.3191C23.5083 25.3058 21.7741 25.8326 20 25.8326C18.2259 25.8326 16.4917 25.3058 15.0173 24.3191C13.5429 23.3323 12.3948 21.9299 11.7183 20.2898Z" stroke="#003A8C" stroke-width="1.66667" stroke-linecap="round" stroke-linejoin="round"/>
<path d="M20 22.5C21.3807 22.5 22.5 21.3807 22.5 20C22.5 18.6193 21.3807 17.5 20 17.5C18.6193 17.5 17.5 18.6193 17.5 20C17.5 21.3807 18.6193 22.5 20 22.5Z" stroke="#003A8C" stroke-width="1.66667" stroke-linecap="round" stroke-linejoin="round"/>
</svg>
