<svg width="15" height="15" viewBox="0 0 15 15" fill="none" xmlns="http://www.w3.org/2000/svg">
<path d="M12.5 6.25005C12.5 9.37068 9.03811 12.6207 7.87561 13.6244C7.76732 13.7059 7.63549 13.7499 7.49999 13.7499C7.36449 13.7499 7.23266 13.7059 7.12436 13.6244C5.96186 12.6207 2.49999 9.37068 2.49999 6.25005C2.49999 4.92397 3.02677 3.6522 3.96445 2.71452C4.90214 1.77683 6.17391 1.25005 7.49999 1.25005C8.82607 1.25005 10.0978 1.77683 11.0355 2.71452C11.9732 3.6522 12.5 4.92397 12.5 6.25005Z" stroke="#6B6B6B" stroke-width="1.1949" stroke-linecap="round" stroke-linejoin="round"/>
<path d="M7.50001 8.12498C8.53555 8.12498 9.37502 7.28552 9.37502 6.24998C9.37502 5.21445 8.53555 4.37498 7.50001 4.37498C6.46448 4.37498 5.62501 5.21445 5.62501 6.24998C5.62501 7.28552 6.46448 8.12498 7.50001 8.12498Z" stroke="#6B6B6B" stroke-width="1.1949" stroke-linecap="round" stroke-linejoin="round"/>
</svg>
